HIERARCHY
ROOT Joint1
{
	OFFSET 0.000000 0.000000 0.000000
	CHANNELS 6 Xposition Yposition Zposition Xrotation Yrotation Zrotation
	JOINT Joint2
	{
		OFFSET -0.000000 0.000000 1.456275
		CHANNELS 6 Xposition Yposition Zposition Xrotation Yrotation Zrotation
		JOINT Joint3
		{
			OFFSET -0.000000 0.000002 1.471446
			CHANNELS 6 Xposition Yposition Zposition Xrotation Yrotation Zrotation
			JOINT Joint4
			{
				OFFSET 0.625745 0.000000 0.917755
				CHANNELS 6 Xposition Yposition Zposition Xrotation Yrotation Zrotation
				JOINT Joint5
				{
					OFFSET -0.629534 0.000001 0.940221
					CHANNELS 6 Xposition Yposition Zposition Xrotation Yrotation Zrotation
					JOINT Joint6
					{
						OFFSET -0.000001 0.113772 1.960660
						CHANNELS 6 Xposition Yposition Zposition Xrotation Yrotation Zrotation
						JOINT Joint7
						{
							OFFSET -0.669733 -0.113771 0.388340
							CHANNELS 6 Xposition Yposition Zposition Xrotation Yrotation Zrotation
							End Site
							{
								OFFSET 0.005509 0.005509 0.438980
							}
						}
					}
				}
			}
		}
	}
}
MOTION
Frames: 24
Frame Time: 0.041667
0.000000 0.000000 0.000000 -0.000000 1.019410 -0.077226 -0.000000 0.000000 1.456275 0.000000 -44.987943 0.000000 -0.000000 0.000002 1.471446 0.000000 -1.133458 0.020668 0.625745 0.000000 0.917755 0.000004 134.964251 -0.000001 -0.629534 0.000001 0.940221 -0.000000 1.709736 -0.037779 -0.000001 0.113772 1.960660 -88.298343 90.032794 0.003714 -0.669733 -0.113771 0.388339 -0.703486 3.566195 134.869284 
0.000000 0.000000 0.000000 -0.000000 1.019410 -0.268381 -0.000000 0.000000 1.456275 -0.000000 -45.013105 0.000000 -0.000001 0.000002 1.471446 0.000000 -1.133466 0.179064 0.625744 0.000000 0.917755 0.000004 134.800217 -0.000001 -0.629534 0.000001 0.940221 -0.000000 1.709737 -0.095141 -0.000001 0.113772 1.960660 -88.302837 90.181925 0.000649 -0.669733 -0.113771 0.388340 -0.698777 3.566173 134.604123 
0.000000 0.000000 0.000000 -0.000000 1.019410 -0.564903 -0.000000 0.000000 1.456275 -0.000000 -45.052136 0.000000 -0.000000 0.000002 1.471446 -0.000000 -1.133460 0.424769 0.625744 0.000000 0.917755 0.000004 134.545752 -0.000001 -0.629533 0.000001 0.940221 -0.000000 1.709736 -0.184121 -0.000001 0.113772 1.960660 -88.303411 90.413256 0.000301 -0.669733 -0.113771 0.388340 -0.691470 3.566098 134.192768 
0.000000 0.000000 0.000000 -0.000000 1.019410 -0.948730 -0.000000 0.000000 1.456275 -0.000000 -45.102656 -0.000000 -0.000000 0.000002 1.471446 0.000000 -1.133457 0.742819 0.625745 0.000000 0.917755 0.000004 134.216359 -0.000001 -0.629534 0.000001 0.940221 0.000000 1.709737 -0.299301 -0.000001 0.113772 1.960660 -88.303616 90.712699 0.000175 -0.669733 -0.113771 0.388340 -0.682014 3.565920 133.660300 
0.000000 0.000000 0.000000 -0.000000 1.019410 -1.401806 -0.000000 -0.000000 1.456275 -0.000000 -45.162304 -0.000000 -0.000000 0.000002 1.471446 -0.000000 -1.133459 1.118250 0.625745 0.000000 0.917755 0.000003 133.827544 -0.000001 -0.629534 0.000001 0.940221 0.000000 1.709737 -0.435260 -0.000000 0.113772 1.960660 -88.303711 91.066168 0.000118 -0.669733 -0.113771 0.388340 -0.670855 3.565599 133.031786 
0.000000 0.000000 0.000000 -0.000000 1.019410 -1.906071 -0.000000 0.000000 1.456275 0.000000 -45.228676 0.000000 -0.000000 0.000002 1.471446 0.000000 -1.133456 1.536097 0.625745 0.000000 0.917755 0.000004 133.394810 -0.000001 -0.629534 0.000001 0.940221 0.000000 1.709737 -0.586580 -0.000001 0.113772 1.960660 -88.303759 91.459566 0.000085 -0.669733 -0.113771 0.388340 -0.658440 3.565096 132.332238 
0.000000 0.000000 0.000000 -0.000000 1.019410 -2.443467 -0.000000 0.000000 1.456275 0.000000 -45.299420 -0.000000 -0.000000 0.000002 1.471446 0.000000 -1.133458 1.981398 0.625745 0.000000 0.917755 0.000004 132.933636 -0.000001 -0.629534 0.000001 0.940220 -0.000000 1.709736 -0.747843 -0.000000 0.113772 1.960660 -88.303780 91.878810 0.000065 -0.669733 -0.113771 0.388341 -0.645217 3.564396 131.586736 
0.000000 0.000000 0.000000 -0.000000 1.019410 -2.995935 -0.000000 0.000000 1.456275 0.000000 -45.372151 0.000000 -0.000000 0.000002 1.471446 0.000000 -1.133455 2.439188 0.625745 0.000000 0.917755 0.000004 132.459539 -0.000001 -0.629534 0.000001 0.940221 -0.000000 1.709736 -0.913628 -0.000002 0.113772 1.960661 -88.303800 92.309822 0.000055 -0.669733 -0.113771 0.388340 -0.631634 3.563496 130.820334 
0.000000 0.000000 0.000000 -0.000000 1.019410 -3.545417 -0.000000 0.000000 1.456275 0.000000 -45.444479 -0.000000 -0.000000 0.000002 1.471446 -0.000000 -1.133458 2.894503 0.625744 0.000000 0.917755 0.000004 131.987969 -0.000001 -0.629534 0.000001 0.940221 0.000000 1.709736 -1.078516 -0.000001 0.113772 1.960660 -88.303814 92.738499 0.000042 -0.669733 -0.113771 0.388340 -0.618137 3.562422 130.058058 
0.000000 0.000000 0.000000 -0.000000 1.019410 -4.100869 -0.000000 0.000000 1.456275 0.000000 -45.517596 -0.000001 -0.000000 0.000002 1.471446 -0.000000 -1.133462 3.354765 0.625745 0.000000 0.917755 0.000004 131.511304 -0.000001 -0.629534 0.000001 0.940221 0.000000 1.709737 -1.245197 -0.000000 0.113772 1.960660 -88.303821 93.171833 0.000039 -0.669733 -0.113771 0.388341 -0.604510 3.561154 129.287531 
0.000000 0.000000 0.000000 -0.000000 1.019410 -4.779314 -0.000000 0.000000 1.456275 -0.000000 -45.606905 0.000001 -0.000000 0.000002 1.471446 -0.000000 -1.133460 3.916944 0.625745 0.000000 0.917755 0.000004 130.929085 -0.000001 -0.629533 0.000001 0.940221 0.000000 1.709737 -1.448785 -0.000000 0.113772 1.960660 -88.303834 93.701118 0.000032 -0.669733 -0.113771 0.388340 -0.587890 3.559357 128.346358 
0.000000 0.000000 0.000000 -0.000000 1.019410 -5.724791 -0.000000 -0.000000 1.456275 -0.000001 -45.731368 0.000000 -0.000000 0.000002 1.471446 0.000000 -1.133462 4.700391 0.625744 0.000000 0.917755 0.000004 130.117713 -0.000001 -0.629534 0.000001 0.940221 0.000000 1.709736 -1.732504 0.000000 0.113772 1.960661 -88.303834 94.438738 0.000019 -0.669733 -0.113771 0.388340 -0.564783 3.556398 127.034770 
0.000000 0.000000 0.000000 -0.000000 1.019410 -7.081339 -0.000000 0.000000 1.456275 -0.000000 -45.909936 0.000000 -0.000000 0.000002 1.471446 0.000001 -1.133457 5.824463 0.625745 0.000000 0.917755 0.000003 128.953575 -0.000001 -0.629534 0.000001 0.940221 -0.000000 1.709736 -2.139578 -0.000001 0.113772 1.960661 -88.303848 95.497034 0.000019 -0.669733 -0.113771 0.388341 -0.531762 3.551234 125.152930 
0.000000 0.000000 0.000000 -0.000000 1.019410 -8.869678 -0.000000 -0.000000 1.456275 0.000000 -46.145342 -0.000000 -0.000000 0.000002 1.471446 0.000001 -1.133461 7.306325 0.625745 0.000000 0.917755 0.000004 127.418887 -0.000001 -0.629534 0.000001 0.940221 -0.000000 1.709737 -2.676224 -0.000001 0.113772 1.960661 -88.303855 96.892203 0.000014 -0.669733 -0.113771 0.388340 -0.488524 3.542779 122.672137 
0.000000 0.000000 0.000000 -0.000000 1.019410 -10.617262 -0.000000 0.000000 1.456275 -0.000000 -46.375390 0.000002 -0.000000 0.000002 1.471446 0.000000 -1.133459 8.754420 0.625745 0.000000 0.917755 0.000005 125.919182 -0.000001 -0.629533 0.000001 0.940221 -0.000000 1.709736 -3.200640 -0.000001 0.113772 1.960660 -88.303855 98.255570 0.000023 -0.669733 -0.113771 0.388340 -0.446663 3.532718 120.247898 
0.000000 0.000000 0.000000 -0.000000 1.019410 -11.894758 -0.000000 0.000000 1.456275 0.000001 -46.543556 -0.000000 -0.000000 0.000002 1.471446 0.000000 -1.133460 9.812989 0.625745 0.000000 0.917755 0.000005 124.822882 -0.000001 -0.629534 0.000001 0.940221 -0.000000 1.709736 -3.583994 -0.000000 0.113772 1.960661 -88.303862 99.252204 0.000010 -0.669733 -0.113771 0.388341 -0.416353 3.524247 118.475792 
0.000000 0.000000 0.000000 -0.000000 1.019410 -12.938958 -0.000000 -0.000000 1.456275 -0.000003 -46.681003 -0.000001 -0.000000 0.000002 1.471446 -0.000000 -1.133460 10.678239 0.625745 0.000000 0.917755 0.000003 123.926788 -0.000003 -0.629534 0.000001 0.940221 -0.000000 1.709736 -3.897336 -0.000001 0.113772 1.960661 -88.303875 100.066834 0.000012 -0.669733 -0.113771 0.388339 -0.391783 3.516632 117.027327 
0.000000 0.000000 0.000000 -0.000000 1.019410 -14.153186 -0.000000 -0.000000 1.456275 -0.000000 -46.840840 -0.000000 -0.000000 0.000002 1.471446 0.000001 -1.133458 11.684376 0.625745 0.000000 0.917755 0.000006 122.884775 -0.000002 -0.629534 0.000001 0.940221 0.000000 1.709737 -4.261703 -0.000002 0.113772 1.960661 -88.303868 101.014106 0.000012 -0.669733 -0.113771 0.388340 -0.363463 3.507003 115.343016 
0.000000 0.000000 0.000000 -0.000000 1.019410 -15.813771 -0.000000 -0.000000 1.456275 0.000000 -47.059440 0.000001 -0.000001 0.000002 1.471446 0.000000 -1.133460 13.060385 0.625745 0.000000 0.917755 0.000004 121.459724 -0.000001 -0.629534 0.000001 0.940221 -0.000000 1.709736 -4.760013 -0.000001 0.113772 1.960661 -88.303868 102.309602 0.000013 -0.669733 -0.113771 0.388340 -0.325221 3.492495 113.039583 
0.000000 0.000000 0.000000 -0.000000 1.019410 -17.689107 -0.000000 -0.000000 1.456275 -0.000001 -47.306293 0.000001 -0.000000 0.000002 1.471446 0.000001 -1.133461 14.614337 0.625745 0.000000 0.917755 0.000006 119.850368 -0.000001 -0.629534 0.000001 0.940221 -0.000000 1.709737 -5.322765 -0.000001 0.113772 1.960660 -88.303875 103.772642 0.000012 -0.669734 -0.113771 0.388341 -0.282775 3.474283 110.438333 
0.000000 0.000000 0.000000 -0.000000 1.019410 -19.492515 -0.000000 -0.000000 1.456275 -0.000001 -47.543690 -0.000002 -0.000000 0.000002 1.471446 -0.000001 -1.133454 16.108690 0.625744 0.000000 0.917754 0.000008 118.302756 -0.000003 -0.629534 0.000001 0.940221 0.000001 1.709738 -5.863933 -0.000001 0.113772 1.960660 -88.303868 105.179565 0.000009 -0.669733 -0.113771 0.388340 -0.242780 3.454972 107.936913 
0.000000 0.000000 0.000000 -0.000000 1.019410 -21.225028 -0.000000 0.000000 1.456275 0.000002 -47.771750 -0.000001 -0.000000 0.000002 1.471446 0.000001 -1.133456 17.544295 0.625745 0.000000 0.917755 0.000007 116.815988 -0.000002 -0.629534 0.000001 0.940221 0.000000 1.709737 -6.383826 -0.000001 0.113772 1.960661 -88.303868 106.531178 0.000009 -0.669733 -0.113771 0.388340 -0.205186 3.434801 105.533888 
0.000000 0.000000 0.000000 -0.000000 1.019410 -22.958569 -0.000000 0.000000 1.456275 -0.000001 -47.999947 0.000001 -0.000000 0.000002 1.471446 -0.000002 -1.133458 18.980752 0.625745 0.000000 0.917755 0.000004 115.328318 -0.000001 -0.629534 0.000001 0.940221 0.000000 1.709739 -6.904027 -0.000000 0.113772 1.960660 -88.303868 107.883596 0.000003 -0.669734 -0.113771 0.388340 -0.168454 3.413057 103.129504 
0.000000 0.000000 0.000000 -0.000000 1.019410 -24.760952 -0.000000 0.000000 1.456275 0.000002 -48.237207 -0.000001 -0.000001 0.000002 1.471446 -0.000002 -1.133460 20.474254 0.625745 0.000000 0.917755 0.000009 113.781574 -0.000001 -0.629534 0.000001 0.940221 0.000000 1.709736 -7.444888 -0.000001 0.113772 1.960660 -88.303875 109.289720 -0.000001 -0.669733 -0.113771 0.388340 -0.131267 3.388837 100.629717 
